<svg width="641" height="247" viewBox="0 0 641 247" fill="none" xmlns="http://www.w3.org/2000/svg">
  <rect x="90.9998" y="35" width="454" height="25" rx="12.5" fill="#8BBDBF"/>
  <rect x="407" y="82" width="186" height="25" rx="12.5" fill="#005C5F"/>
  <rect x="331" y="127" width="310" height="25" rx="12.5" fill="#ABE8DD"/>
  <path d="M42.3055 60.0743H39.4949C39.0469 60.0803 38.6031 59.9885 38.1954 59.8054C37.7878 59.6223 37.4263 59.3526 37.1371 59.0155C36.5833 58.4162 36.2767 57.6348 36.2774 56.8244V3.17156C36.2876 2.38529 36.596 1.63122 37.1421 1.0576C37.4326 0.72376 37.7937 0.456545 38.2001 0.274698C38.6066 0.09285 39.0485 0.000774126 39.4949 0.00491732H42.3055C42.7701 -0.0104264 43.232 0.0812923 43.6542 0.272772C44.0765 0.464251 44.4476 0.750199 44.7379 1.10785C45.2353 1.68616 45.512 2.41736 45.5205 3.17524V56.8244C45.5202 57.6078 45.2436 58.3667 44.7379 58.9714C44.4469 59.3283 44.0758 59.6138 43.6536 59.8052C43.2315 59.9966 42.77 60.0887 42.3055 60.0743Z" fill="#4A4A4A"/>
  <path d="M17.9232 60.0743H15.1126C14.6633 60.0813 14.2181 59.9896 13.8092 59.8061C13.4003 59.6225 13.038 59.3516 12.7486 59.0131C12.1976 58.4134 11.8929 57.6332 11.8939 56.8243V9.10901H3.70212C2.9069 9.09696 2.14428 8.7958 1.56086 8.26343C1.21804 7.97769 0.943727 7.62069 0.757644 7.2181C0.571561 6.81551 0.478327 6.37732 0.484638 5.93501V3.16665C0.469256 2.70922 0.56247 2.25457 0.756866 1.83886C0.951261 1.42315 1.24147 1.05787 1.60441 0.772065C2.19252 0.282005 2.93557 0.00901368 3.70585 1.02559e-05H29.1633C29.9623 -0.0019323 30.7367 0.272133 31.3518 0.774514C31.7128 1.06094 32.0011 1.42621 32.194 1.84142C32.3868 2.25662 32.4789 2.71034 32.4628 3.16665V5.93501C32.4697 6.37727 32.3768 6.81552 32.1909 7.21816C32.005 7.62079 31.7307 7.97779 31.3879 8.26343C30.7788 8.80776 29.9857 9.1092 29.1633 9.10901H21.1382V56.8243C21.1381 57.608 20.861 58.3671 20.3544 58.9714C20.0642 59.3289 19.6933 59.6147 19.2713 59.8062C18.8492 59.9977 18.3876 60.0895 17.9232 60.0743Z" fill="#4A4A4A"/>
  <path d="M67.9056 60.0746H55.9688C55.5198 60.0815 55.0748 59.9901 54.666 59.807C54.2572 59.6239 53.8947 59.3536 53.6048 59.0158C53.0498 58.4168 52.7415 57.6355 52.7401 56.8246V3.17183C52.7253 2.7143 52.8188 2.25966 53.0132 1.84384C53.2075 1.42803 53.4974 1.06245 53.8599 0.776012C54.4489 0.287643 55.1915 0.0152688 55.9613 0.00518709H65.3003C67.3727 -0.0108496 69.4442 0.100886 71.5025 0.339742C73.1784 0.518102 74.8032 1.01547 76.2865 1.80419C78.5311 3.04505 80.2847 4.99596 81.2632 7.34092C82.3134 9.78219 82.8424 12.4102 82.8172 15.0614C82.8172 19.5308 82.3444 22.6937 81.369 24.7329C80.8382 25.8221 80.1201 26.8126 79.2464 27.6606C79.0996 27.7917 78.9416 27.9241 78.7736 28.0552C80.3514 29.0057 81.6071 30.3961 82.3818 32.0503C83.6072 34.9431 84.1795 38.0638 84.0589 41.1961C84.0577 43.3609 83.9152 45.5234 83.6322 47.6703C83.3627 49.8437 82.6405 51.9389 81.5108 53.8246C80.3055 55.7641 78.5804 57.3386 76.5253 58.3749C73.8333 59.6179 70.876 60.201 67.9056 60.0746ZM61.9895 50.9693H67.4527C68.5727 50.9858 69.6898 50.8526 70.7734 50.5734C71.5877 50.3512 72.3199 49.9028 72.8824 49.2818C73.5705 48.4437 74.0491 47.4581 74.2796 46.4044C74.6821 44.6147 74.8626 42.7835 74.8171 40.951C74.864 39.5287 74.6667 38.1088 74.2335 36.7512C73.948 35.8933 73.4138 35.1363 72.697 34.5736C71.8851 34.0084 70.9541 33.6314 69.9734 33.4706C68.5687 33.2285 67.1443 33.1145 65.7183 33.1299H61.9857L61.9895 50.9693ZM61.9895 24.0222H65.8813C67.0301 24.0251 68.178 23.9604 69.319 23.8285C70.15 23.7443 70.9421 23.4394 71.6108 22.9462C72.3287 22.3285 72.8505 21.5201 73.1138 20.6178C73.5954 18.9158 73.8053 17.1505 73.7359 15.385C73.8015 14.1463 73.5953 12.9082 73.1312 11.7551C72.8022 11.0435 72.2723 10.4402 71.6046 10.0174C70.8287 9.58032 69.962 9.323 69.0702 9.26492C67.9043 9.16198 66.6091 9.10928 65.2244 9.10928H61.9895V24.0222Z" fill="#4A4A4A"/>
  <path d="M613.459 246.666C607.812 246.666 602.537 245.625 597.633 243.545C592.729 241.464 588.419 238.604 584.704 234.963C580.988 231.248 578.053 226.975 575.899 222.145C573.818 217.316 572.778 212.114 572.778 206.541C572.778 200.969 573.818 195.767 575.899 190.938C578.053 186.108 580.988 181.873 584.704 178.232C588.419 174.517 592.729 171.619 597.633 169.538C602.537 167.458 607.812 166.417 613.459 166.417C616.952 166.417 620.332 166.789 623.602 167.532C626.871 168.275 629.88 169.39 632.63 170.876C633.744 171.47 634.562 172.287 635.082 173.328C635.676 174.294 635.973 175.297 635.973 176.337C635.973 178.12 635.379 179.718 634.19 181.13C633.001 182.541 631.478 183.247 629.62 183.247C629.026 183.247 628.394 183.173 627.726 183.024C627.131 182.876 626.537 182.653 625.942 182.356C624.085 181.538 622.116 180.907 620.035 180.461C617.955 180.015 615.763 179.792 613.459 179.792C608.63 179.792 604.208 181.018 600.196 183.47C596.258 185.848 593.1 189.08 590.722 193.167C588.419 197.179 587.267 201.637 587.267 206.541C587.267 211.371 588.419 215.829 590.722 219.916C593.1 224.003 596.258 227.272 600.196 229.724C604.208 232.102 608.63 233.291 613.459 233.291C615.688 233.291 618.14 233.068 620.815 232.622C623.49 232.176 625.682 231.582 627.391 230.839L626.388 234.183V215.124L628.283 216.795H615.911C613.979 216.795 612.345 216.164 611.007 214.901C609.744 213.638 609.113 212.04 609.113 210.108C609.113 208.176 609.744 206.579 611.007 205.315C612.345 204.052 613.979 203.421 615.911 203.421H634.19C636.122 203.421 637.719 204.089 638.983 205.427C640.246 206.69 640.877 208.288 640.877 210.22V233.848C640.877 235.334 640.506 236.56 639.763 237.526C639.094 238.492 638.314 239.272 637.422 239.867C634.004 241.947 630.252 243.619 626.165 244.882C622.153 246.071 617.918 246.666 613.459 246.666Z" fill="#4A4A4A"/>
  <path d="M553.903 167.532C555.686 167.532 557.135 168.126 558.25 169.315C559.364 170.504 559.921 171.99 559.921 173.773V238.752C559.921 240.684 559.253 242.319 557.915 243.656C556.652 244.919 555.054 245.551 553.123 245.551C552.157 245.551 551.153 245.402 550.113 245.105C549.147 244.734 548.404 244.251 547.884 243.656L504.082 188.04L506.98 186.257V239.309C506.98 241.093 506.385 242.579 505.197 243.768C504.082 244.957 502.596 245.551 500.738 245.551C498.955 245.551 497.506 244.957 496.392 243.768C495.277 242.579 494.72 241.093 494.72 239.309V174.331C494.72 172.399 495.351 170.801 496.614 169.538C497.952 168.201 499.587 167.532 501.519 167.532C502.559 167.532 503.636 167.755 504.751 168.201C505.865 168.572 506.683 169.167 507.203 169.984L549.667 224.151L547.773 225.489V173.773C547.773 171.99 548.33 170.504 549.445 169.315C550.559 168.126 552.045 167.532 553.903 167.532Z" fill="#4A4A4A"/>
  <path d="M477.958 238.752C477.958 240.684 477.252 242.319 475.84 243.656C474.428 244.919 472.794 245.551 470.936 245.551C468.856 245.551 467.184 244.919 465.921 243.656C464.657 242.319 464.026 240.684 464.026 238.752V174.331C464.026 172.399 464.695 170.801 466.032 169.538C467.37 168.201 469.078 167.532 471.159 167.532C472.942 167.532 474.503 168.201 475.84 169.538C477.252 170.801 477.958 172.399 477.958 174.331V238.752Z" fill="#4A4A4A"/>
  <path d="M391.05 167.532C392.833 167.532 394.394 168.201 395.731 169.538C397.143 170.801 397.849 172.399 397.849 174.331V238.752C397.849 240.684 397.143 242.319 395.731 243.656C394.32 244.919 392.685 245.551 390.827 245.551C388.747 245.551 387.075 244.919 385.812 243.656C384.549 242.319 383.917 240.684 383.917 238.752V174.331C383.917 172.399 384.586 170.801 385.923 169.538C387.261 168.201 388.97 167.532 391.05 167.532ZM440.425 167.532C442.506 167.532 444.177 168.201 445.441 169.538C446.704 170.801 447.335 172.399 447.335 174.331V238.752C447.335 240.684 446.667 242.319 445.329 243.656C444.066 244.919 442.357 245.551 440.202 245.551C438.419 245.551 436.821 244.919 435.41 243.656C434.072 242.319 433.403 240.684 433.403 238.752V174.331C433.403 172.399 434.109 170.801 435.521 169.538C436.933 168.201 438.567 167.532 440.425 167.532ZM390.716 199.966H440.425V212.783H390.716V199.966Z" fill="#4A4A4A"/>
  <path d="M342.491 246.666C337.29 246.666 332.609 246.034 328.448 244.771C324.287 243.433 320.311 241.13 316.522 237.861C315.556 237.043 314.813 236.114 314.293 235.074C313.773 234.034 313.513 232.994 313.513 231.953C313.513 230.244 314.107 228.758 315.296 227.495C316.559 226.158 318.119 225.489 319.977 225.489C321.389 225.489 322.652 225.935 323.767 226.826C326.59 229.13 329.377 230.876 332.126 232.065C334.949 233.254 338.404 233.848 342.491 233.848C345.24 233.848 347.767 233.439 350.07 232.622C352.374 231.73 354.231 230.579 355.643 229.167C357.055 227.681 357.761 226.009 357.761 224.151C357.761 221.922 357.092 220.028 355.754 218.467C354.417 216.907 352.374 215.607 349.624 214.566C346.875 213.452 343.383 212.597 339.147 212.003C335.135 211.408 331.606 210.517 328.559 209.328C325.513 208.065 322.949 206.504 320.869 204.647C318.863 202.715 317.339 200.486 316.299 197.959C315.259 195.359 314.739 192.461 314.739 189.266C314.739 184.436 315.965 180.312 318.417 176.894C320.943 173.476 324.324 170.876 328.559 169.092C332.794 167.309 337.476 166.417 342.603 166.417C347.432 166.417 351.891 167.16 355.977 168.647C360.138 170.058 363.519 171.879 366.12 174.108C368.275 175.817 369.352 177.786 369.352 180.015C369.352 181.65 368.72 183.136 367.457 184.473C366.194 185.811 364.708 186.479 362.999 186.479C361.884 186.479 360.881 186.145 359.99 185.476C358.801 184.436 357.203 183.47 355.197 182.578C353.191 181.613 351.073 180.832 348.844 180.238C346.615 179.569 344.535 179.235 342.603 179.235C339.408 179.235 336.695 179.643 334.466 180.461C332.312 181.278 330.677 182.393 329.562 183.805C328.448 185.216 327.89 186.851 327.89 188.709C327.89 190.938 328.522 192.795 329.785 194.281C331.123 195.693 333.017 196.845 335.469 197.736C337.921 198.554 340.856 199.297 344.274 199.966C348.733 200.783 352.634 201.749 355.977 202.863C359.395 203.978 362.219 205.427 364.448 207.21C366.677 208.919 368.349 211.111 369.463 213.786C370.578 216.387 371.135 219.582 371.135 223.371C371.135 228.201 369.798 232.362 367.123 235.854C364.448 239.347 360.919 242.022 356.535 243.879C352.225 245.737 347.544 246.666 342.491 246.666Z" fill="#4A4A4A"/>
  <path d="M300.652 238.752C300.652 240.684 299.946 242.319 298.534 243.656C297.122 244.919 295.488 245.551 293.63 245.551C291.549 245.551 289.878 244.919 288.614 243.656C287.351 242.319 286.72 240.684 286.72 238.752V174.331C286.72 172.399 287.388 170.801 288.726 169.538C290.063 168.201 291.772 167.532 293.853 167.532C295.636 167.532 297.197 168.201 298.534 169.538C299.946 170.801 300.652 172.399 300.652 174.331V238.752Z" fill="#4A4A4A"/>
  <path d="M267.157 232.511C269.088 232.511 270.686 233.142 271.949 234.405C273.287 235.594 273.955 237.155 273.955 239.087C273.955 240.944 273.287 242.505 271.949 243.768C270.686 244.957 269.088 245.551 267.157 245.551H230.933C229.002 245.551 227.367 244.919 226.029 243.656C224.766 242.319 224.135 240.684 224.135 238.752V174.331C224.135 172.399 224.803 170.801 226.141 169.538C227.478 168.201 229.187 167.532 231.268 167.532C233.051 167.532 234.612 168.201 235.949 169.538C237.361 170.801 238.067 172.399 238.067 174.331V234.405L235.615 232.511H267.157Z" fill="#4A4A4A"/>
  <path d="M185.986 167.532C193.119 167.532 198.432 169.204 201.924 172.547C205.417 175.891 207.163 180.832 207.163 187.371C207.163 190.863 206.308 193.947 204.599 196.622C202.89 199.223 200.364 201.266 197.02 202.752C193.677 204.164 189.553 204.87 184.649 204.87L185.095 199.854C187.398 199.854 190.036 200.189 193.008 200.857C195.98 201.452 198.841 202.566 201.59 204.201C204.414 205.761 206.717 207.99 208.5 210.888C210.358 213.712 211.287 217.353 211.287 221.811C211.287 226.715 210.469 230.727 208.835 233.848C207.274 236.969 205.194 239.384 202.593 241.093C199.993 242.802 197.206 243.991 194.234 244.659C191.262 245.254 188.401 245.551 185.652 245.551H157.899C155.968 245.551 154.333 244.919 152.995 243.656C151.732 242.319 151.101 240.684 151.101 238.752V174.331C151.101 172.399 151.732 170.801 152.995 169.538C154.333 168.201 155.968 167.532 157.899 167.532H185.986ZM183.98 180.684H164.141L165.59 178.9V199.074L164.252 198.071H184.314C186.469 198.071 188.401 197.365 190.11 195.953C191.819 194.541 192.674 192.498 192.674 189.823C192.674 186.628 191.856 184.325 190.222 182.913C188.661 181.427 186.581 180.684 183.98 180.684ZM184.872 211.223H164.587L165.59 210.331V233.848L164.475 232.734H185.652C189.07 232.734 191.782 231.842 193.788 230.059C195.794 228.201 196.798 225.452 196.798 221.811C196.798 218.467 196.129 216.052 194.791 214.566C193.454 213.08 191.856 212.151 189.999 211.78C188.141 211.408 186.432 211.223 184.872 211.223Z" fill="#4A4A4A"/>
  <path d="M127.909 167.421C129.841 167.421 131.401 168.089 132.59 169.427C133.779 170.69 134.374 172.287 134.374 174.219V214.566C134.374 220.734 133.036 226.195 130.361 230.95C127.761 235.706 124.157 239.421 119.55 242.096C114.943 244.771 109.593 246.108 103.5 246.108C97.4074 246.108 92.0204 244.771 87.3392 242.096C82.7324 239.421 79.0915 235.706 76.4166 230.95C73.8159 226.195 72.5156 220.734 72.5156 214.566V174.219C72.5156 172.287 73.1844 170.69 74.5218 169.427C75.8593 168.089 77.5683 167.421 79.6488 167.421C81.3578 167.421 82.881 168.089 84.2185 169.427C85.6303 170.69 86.3361 172.287 86.3361 174.219V214.566C86.3361 218.282 87.1163 221.514 88.6767 224.263C90.3114 226.938 92.4291 229.018 95.0297 230.504C97.7046 231.991 100.528 232.734 103.5 232.734C106.695 232.734 109.668 231.991 112.417 230.504C115.166 229.018 117.395 226.938 119.104 224.263C120.813 221.514 121.668 218.282 121.668 214.566V174.219C121.668 172.287 122.225 170.69 123.339 169.427C124.454 168.089 125.977 167.421 127.909 167.421Z" fill="#4A4A4A"/>
  <path d="M37.5699 167.532C41.4337 167.532 45.0374 168.647 48.3811 170.876C51.7991 173.105 54.5483 176.114 56.6288 179.904C58.7093 183.693 59.7496 187.928 59.7496 192.61C59.7496 197.216 58.7093 201.415 56.6288 205.204C54.5483 208.994 51.7991 212.04 48.3811 214.343C45.0374 216.573 41.4337 217.687 37.5699 217.687H17.062L18.1766 215.681V238.752C18.1766 240.684 17.5821 242.319 16.3933 243.656C15.2044 244.919 13.644 245.551 11.7121 245.551C9.85454 245.551 8.33132 244.919 7.14245 243.656C5.95359 242.319 5.35916 240.684 5.35916 238.752V174.331C5.35916 172.399 5.99074 170.801 7.25391 169.538C8.59138 168.201 10.2261 167.532 12.158 167.532H37.5699ZM37.5699 204.981C38.9817 204.981 40.3563 204.387 41.6937 203.198C43.0312 202.009 44.1458 200.486 45.0374 198.628C45.9291 196.696 46.3749 194.69 46.3749 192.61C46.3749 190.455 45.9291 188.448 45.0374 186.591C44.1458 184.733 43.0312 183.247 41.6937 182.133C40.3563 180.944 38.9817 180.349 37.5699 180.349H16.8391L18.1766 178.343V206.764L16.9506 204.981H37.5699Z" fill="#4A4A4A"/>
  <path d="M280.052 73.4911C281.836 73.4911 283.285 74.0856 284.399 75.2744C285.514 76.4633 286.071 77.9494 286.071 79.7327V144.711C286.071 146.643 285.402 148.278 284.065 149.615C282.802 150.879 281.204 151.51 279.272 151.51C278.306 151.51 277.303 151.362 276.263 151.064C275.297 150.693 274.554 150.21 274.034 149.615L230.232 93.999L233.129 92.2157V145.269C233.129 147.052 232.535 148.538 231.346 149.727C230.232 150.916 228.746 151.51 226.888 151.51C225.105 151.51 223.656 150.916 222.541 149.727C221.427 148.538 220.869 147.052 220.869 145.269V80.29C220.869 78.3581 221.501 76.7605 222.764 75.4974C224.102 74.1599 225.736 73.4911 227.668 73.4911C228.708 73.4911 229.786 73.7141 230.9 74.1599C232.015 74.5314 232.832 75.1258 233.352 75.9432L275.817 130.111L273.922 131.448V79.7327C273.922 77.9494 274.48 76.4633 275.594 75.2744C276.709 74.0856 278.195 73.4911 280.052 73.4911Z" fill="#4A4A4A"/>
  <path d="M163.886 73.4911H201.224C203.155 73.4911 204.753 74.1227 206.016 75.3859C207.354 76.5748 208.022 78.1351 208.022 80.067C208.022 81.9246 207.354 83.4479 206.016 84.6367C204.753 85.7513 203.155 86.3086 201.224 86.3086H170.016L171.019 84.4138V106.148L170.127 105.256H196.208C198.14 105.256 199.737 105.888 201.001 107.151C202.338 108.34 203.007 109.9 203.007 111.832C203.007 113.69 202.338 115.213 201.001 116.402C199.737 117.516 198.14 118.073 196.208 118.073H170.462L171.019 117.182V139.696L170.127 138.693H201.224C203.155 138.693 204.753 139.362 206.016 140.699C207.354 141.962 208.022 143.448 208.022 145.157C208.022 147.015 207.354 148.538 206.016 149.727C204.753 150.916 203.155 151.51 201.224 151.51H163.886C161.954 151.51 160.319 150.879 158.982 149.615C157.719 148.278 157.087 146.643 157.087 144.711V80.29C157.087 78.3581 157.719 76.7605 158.982 75.4974C160.319 74.1599 161.954 73.4911 163.886 73.4911Z" fill="#4A4A4A"/>
  <path d="M122.141 73.4911C126.005 73.4911 129.609 74.6057 132.953 76.8348C136.371 79.0639 139.12 82.0732 141.2 85.8627C143.281 89.6522 144.321 93.8876 144.321 98.5687C144.321 103.176 143.281 107.374 141.2 111.163C139.12 114.953 136.371 117.999 132.953 120.303C129.609 122.532 126.005 123.646 122.141 123.646H101.633L102.748 121.64V144.711C102.748 146.643 102.154 148.278 100.965 149.615C99.7759 150.879 98.2155 151.51 96.2836 151.51C94.426 151.51 92.9028 150.879 91.7139 149.615C90.525 148.278 89.9306 146.643 89.9306 144.711V80.29C89.9306 78.3581 90.5622 76.7605 91.8254 75.4974C93.1628 74.1599 94.7975 73.4911 96.7294 73.4911H122.141ZM122.141 110.94C123.553 110.94 124.928 110.346 126.265 109.157C127.603 107.968 128.717 106.445 129.609 104.587C130.501 102.655 130.946 100.649 130.946 98.5687C130.946 96.4139 130.501 94.4077 129.609 92.5501C128.717 90.6925 127.603 89.2064 126.265 88.0919C124.928 86.903 123.553 86.3086 122.141 86.3086H101.411L102.748 84.3024V112.724L101.522 110.94H122.141Z" fill="#4A4A4A"/>
  <path d="M77.1367 112.501C77.1367 118.073 76.2079 123.275 74.3503 128.104C72.4927 132.934 69.8549 137.207 66.4369 140.922C63.0933 144.563 59.0809 147.423 54.3997 149.504C49.7929 151.585 44.7402 152.625 39.2417 152.625C33.7432 152.625 28.6906 151.585 24.0837 149.504C19.4769 147.423 15.4645 144.563 12.0465 140.922C8.70285 137.207 6.10221 132.934 4.24462 128.104C2.38702 123.275 1.45822 118.073 1.45822 112.501C1.45822 106.928 2.38702 101.727 4.24462 96.8969C6.10221 92.0671 8.70285 87.8318 12.0465 84.1909C15.4645 80.4757 19.4769 77.5779 24.0837 75.4973C28.6906 73.4168 33.7432 72.3766 39.2417 72.3766C44.7402 72.3766 49.7929 73.4168 54.3997 75.4973C59.0809 77.5779 63.0933 80.4757 66.4369 84.1909C69.8549 87.8318 72.4927 92.0671 74.3503 96.8969C76.2079 101.727 77.1367 106.928 77.1367 112.501ZM62.6474 112.501C62.6474 107.522 61.6443 103.027 59.6381 99.0145C57.6319 94.9278 54.8827 91.6956 51.3904 89.3179C47.8981 86.9401 43.8486 85.7513 39.2417 85.7513C34.6349 85.7513 30.5853 86.9401 27.0931 89.3179C23.6008 91.6956 20.8515 94.8907 18.8453 98.9031C16.9134 102.915 15.9475 107.448 15.9475 112.501C15.9475 117.479 16.9134 122.012 18.8453 126.098C20.8515 130.111 23.6008 133.306 27.0931 135.683C30.5853 138.061 34.6349 139.25 39.2417 139.25C43.8486 139.25 47.8981 138.061 51.3904 135.683C54.8827 133.306 57.6319 130.111 59.6381 126.098C61.6443 122.012 62.6474 117.479 62.6474 112.501Z" fill="#4A4A4A"/>
</svg>
